<svg width="458" height="390" viewBox="0 0 458 390" fill="none" xmlns="http://www.w3.org/2000/svg">
<path fill-rule="evenodd" clip-rule="evenodd" d="M189.068 1.35514C188.448 2.10214 187.102 5.15014 186.078 8.12714C174.309 42.3341 141.753 67.0501 106.24 68.7381C93.6555 69.3371 85.9725 68.1971 76.1875 64.2801C70.1215 61.8511 69.8005 61.8221 67.9145 63.5301C66.0245 65.2401 65.9515 66.8381 65.9515 106.651C65.9515 129.391 65.6135 147.986 65.2015 147.974C64.7895 147.962 63.3265 147.072 61.9515 145.996C57.3625 142.407 52.9515 143.932 52.9515 149.107C52.9515 151.629 56.8865 156.141 59.9885 157.175C60.6545 157.397 59.0905 161.584 56.0785 167.644C48.5185 182.851 46.7385 188.864 46.2035 200.996C45.6435 213.692 47.2455 220.88 53.1865 232.318C59.7985 245.048 65.2035 248.718 73.3705 246.023C80.4295 243.693 88.8835 230.536 91.6235 217.613C94.2705 205.131 92.2315 191.886 84.3785 170.562L79.7365 157.958L84.0945 154.055C88.3865 150.209 88.4285 150.109 86.9195 147.323C85.1525 144.06 80.9665 143.068 78.9935 145.445C78.2855 146.298 77.3115 146.996 76.8295 146.996C76.3425 146.996 75.9515 131.94 75.9515 113.247V79.4991L123.088 126.636L170.225 173.773L166.838 177.986L163.451 182.199L163.163 227.574L162.874 272.949L105.163 273.222L47.4515 273.496L44.0845 275.897C39.0825 279.465 36.9995 284.946 36.9735 294.61C36.9545 301.795 38.0095 310.39 39.4885 315.096C39.9115 316.443 38.6845 316.793 31.7215 317.309C23.5855 317.912 12.9365 320.418 4.97948 323.601C0.518483 325.386 -0.967516 328.411 0.901484 331.903C2.34348 334.597 4.82248 334.535 13.5085 331.587C23.2985 328.264 35.0175 326.649 43.4445 327.461C47.2985 327.832 56.5265 329.486 63.9515 331.135C81.0865 334.943 92.1835 335.703 104.187 333.893C109.282 333.125 118.626 332.56 124.951 332.638C134.803 332.759 138.457 333.316 150.451 336.526C161.641 339.521 166.759 340.36 175.951 340.705C186.849 341.114 188.283 340.923 203.359 337.066C224.707 331.604 231.902 331.549 252.004 336.693C265.111 340.048 267.703 340.393 279.951 340.416C292.494 340.439 294.418 340.176 307.102 336.695C324.157 332.014 332.865 331.319 348.409 333.397C367.117 335.898 375.149 335.378 398.451 330.153C416.837 326.031 428.991 326.408 444.173 331.572C448.094 332.905 452.332 333.996 453.591 333.996C456.358 333.996 458.348 330.708 457.535 327.474C456.285 322.494 432.844 316.572 416.816 317.187L407.18 317.557L412.664 311.527C425.374 297.551 436.952 276.447 444.507 253.489C450.469 235.372 450.293 230.378 443.467 223.996L440.793 221.496L413.906 221.2L387.019 220.905L386.735 182.522C386.461 145.548 386.375 144.039 384.389 141.38C383.255 139.862 381.085 137.692 379.566 136.558C376.91 134.575 375.568 134.496 344.451 134.496C313.334 134.496 311.992 134.575 309.336 136.558C303.039 141.26 302.479 142.928 302.125 158.065L301.8 171.996H262.375H222.951V158.43C222.951 150.969 222.485 143.994 221.916 142.93C220.743 140.738 216.052 140.295 214.151 142.196C213.33 143.017 212.951 147.907 212.951 157.696V171.996H205.451H197.951V87.9301C197.951 31.8941 197.606 3.22014 196.916 1.93014C195.7 -0.341863 190.776 -0.70286 189.068 1.35514ZM185.218 32.2461C181.839 37.9371 171.269 50.3451 165.956 54.8571C152.015 66.6991 135.471 74.8541 118.951 78.0291C115.926 78.6101 108.072 79.0851 101.497 79.0831L89.5445 79.0801L135.993 125.538C174.773 164.325 182.898 171.996 185.197 171.996H187.951V100.496C187.951 61.1711 187.77 28.9961 187.55 28.9961C187.329 28.9961 186.28 30.4591 185.218 32.2461ZM314.392 145.415C312.531 146.775 312.451 148.36 312.451 183.665V220.496H344.451H376.451L376.733 209.329L377.015 198.162L359.733 197.829C344.579 197.537 342.02 197.247 338.951 195.473C333.727 192.454 330.951 186.217 330.951 177.496C330.951 167.968 333.694 162.382 339.913 159.246C343.999 157.185 345.756 156.996 360.79 156.996H377.205L376.709 151.828C376.38 148.408 375.596 146.21 374.391 145.328C371.645 143.321 317.15 143.399 314.392 145.415ZM64.9935 172.14C62.6565 177.169 59.8585 183.806 58.7745 186.89C56.2075 194.191 55.3775 205.93 56.9075 213.29C58.3585 220.271 65.3305 234.593 67.9635 236.002C70.5495 237.387 74.2215 233.468 78.2605 225.013C80.8075 219.683 81.4325 216.967 81.7785 209.731C82.0095 204.892 81.6495 198.134 80.9785 194.714C79.6205 187.804 70.9665 162.996 69.9125 162.996C69.5435 162.996 67.3295 167.111 64.9935 172.14ZM343.151 169.196C341.559 170.789 341.559 184.203 343.151 185.796C343.986 186.631 349.307 186.996 360.651 186.996H376.951V177.496V167.996H360.651C349.307 167.996 343.986 168.361 343.151 169.196ZM176.201 183.027L173.951 183.932V228.464V272.996H186.451H198.951V251.178C198.951 226.907 199.699 222.452 204.981 215.27C207.099 212.39 210.132 210.048 214.574 207.861C226.704 201.889 240.697 204.055 249.752 213.304C256.687 220.388 257.328 222.902 257.756 244.716L258.134 263.937L263.293 261.326C270.658 257.599 279.641 247.941 284.729 238.279C289.135 229.91 294.135 224.525 299.107 222.792L301.951 221.8V201.898V181.996L240.201 182.059C205.881 182.095 177.452 182.525 176.201 183.027ZM62.6065 211.825C59.2995 215.478 61.1495 219.996 65.9515 219.996C70.8315 219.996 72.7535 214.937 69.1225 211.651C66.7455 209.5 64.6605 209.556 62.6065 211.825ZM218.95 216.936C210.062 221.638 209.05 225.175 208.995 251.727L208.951 272.958L213.201 272.494C215.539 272.238 221.992 271.555 227.542 270.974C233.092 270.394 239.842 269.374 242.542 268.707L247.451 267.496L247.729 250.996C248.125 227.46 246.339 221.275 237.907 216.973C232.858 214.398 223.782 214.38 218.95 216.936ZM301.935 232.845C299.869 233.942 297.48 236.485 296.063 239.095C281.644 265.671 268.013 274.956 234.951 280.722C226.782 282.146 213.154 282.457 137.664 282.937C41.0045 283.552 47.9985 283.022 47.9665 289.746L47.9515 292.996H91.7965C133.002 292.996 135.741 293.106 137.296 294.825C139.24 296.973 139.444 300.103 137.751 301.796C136.854 302.693 125.373 302.996 92.2515 302.996H47.9515V305.318C47.9515 309.643 51.1095 317.115 53.3215 318.023C56.6085 319.372 78.6785 323.754 85.9515 324.501C90.1585 324.933 96.8605 324.565 104.951 323.456C123.014 320.982 135.569 321.802 153.451 326.624C165.603 329.902 168.903 330.403 178.451 330.42C187.928 330.437 190.983 329.993 200.512 327.213C222.122 320.911 232.862 320.906 256.528 327.191C271.964 331.29 287.14 331.626 298.951 328.131C303.076 326.91 310.726 324.983 315.951 323.847C325.734 321.722 334.932 321.728 358.451 323.878C362.851 324.28 370.448 324.226 375.334 323.759C385.701 322.767 389.007 320.925 399.837 310.105L406.451 303.496L289.048 303.242C204.309 303.058 171.271 302.677 170.298 301.869C168.477 300.358 168.596 296.494 170.522 294.567C171.934 293.156 184.449 292.996 293.332 292.996H414.57L419.306 285.034C424.972 275.509 429.077 266.642 433.445 254.496C438.111 241.519 439.362 235.633 437.996 233.079C436.883 231.001 436.733 230.996 371.15 230.996C309.126 230.996 305.223 231.1 301.935 232.845ZM150.606 294.825C147.299 298.478 149.149 302.996 153.951 302.996C158.831 302.996 160.753 297.937 157.122 294.651C154.745 292.5 152.66 292.556 150.606 294.825ZM22.4515 342.496C18.6015 343.289 12.1855 345.122 8.19448 346.571C2.27948 348.717 0.818484 349.676 0.297484 351.755C-1.30552 358.141 3.45148 358.912 17.4515 354.533C30.5485 350.436 43.4305 350.539 62.4515 354.891C80.9945 359.135 90.9965 359.706 108.415 357.519C125.61 355.359 131.382 355.832 152.83 361.16C168.602 365.078 169.657 365.21 181.33 364.717C191.271 364.297 195.339 363.616 203.951 360.931C213.59 357.925 215.557 357.654 227.951 357.623C240.316 357.591 242.666 357.9 255.898 361.292C276.074 366.464 284.265 366.426 305.142 361.063C325.357 355.87 331.345 355.374 347.981 357.513C364.362 359.618 376.827 359.057 392.364 355.515C416.251 350.069 426.578 350.068 443.801 355.509C448.348 356.945 453.008 357.979 454.157 357.808C456.947 357.391 458.389 354.875 457.611 351.777C456.924 349.039 451.734 346.678 438.951 343.291C428.432 340.503 409.284 340.952 395.018 344.319C378.596 348.196 367.978 349.205 356.784 347.953C330.288 344.991 322.517 345.467 302.451 351.287C292.825 354.078 290.014 354.47 279.951 354.421C270 354.374 266.498 353.859 253.951 350.603C233.01 345.168 224.368 345.23 201.498 350.983C185.959 354.891 183.789 355.203 175.498 354.717C169.771 354.382 161.313 352.833 152.451 350.498C134.51 345.77 122.437 345.002 105.043 347.483C90.4695 349.561 84.1915 349.145 64.9515 344.825C48.6805 341.172 33.0405 340.314 22.4515 342.496ZM25.3445 366.018C17.7395 367.388 3.69948 371.982 1.70148 373.754C-0.656517 375.845 -0.509517 379.56 2.00048 381.318C3.82448 382.595 5.00548 382.446 12.7505 379.956C30.6655 374.196 41.4645 374.099 64.4515 379.488C78.8785 382.87 92.3385 383.673 105.29 381.925C123.023 379.531 132.247 380.146 151.498 385.004C172.787 390.375 182.952 390.721 197.951 386.582C222.614 379.776 232.838 379.51 253.451 385.14C264.381 388.125 266.744 388.42 279.951 388.456C293.455 388.493 295.214 388.272 305.559 385.228C322.485 380.249 331.125 379.433 346.299 381.379C366.601 383.983 376.439 383.429 397.387 378.498C415.303 374.282 429.109 374.706 444.884 379.956C452.12 382.364 453.762 382.61 455.451 381.538C458.1 379.858 458.517 375.81 456.248 373.797C453.688 371.525 439.86 367.385 430.04 365.949C419.67 364.432 411.247 365.105 393.358 368.876C373.355 373.093 367.645 373.436 350.366 371.461C331.363 369.289 323.618 369.882 303.395 375.06C288.739 378.812 286.643 379.107 277.451 378.714C270.102 378.399 264.27 377.387 255.451 374.895C244.076 371.682 242.644 371.509 227.951 371.57C213.344 371.63 211.846 371.823 201.951 374.905C193.879 377.42 189.023 378.289 180.951 378.663C171.092 379.12 169.474 378.899 154.451 375.043C134.128 369.826 124.173 369.087 106.451 371.481C90.9085 373.581 84.5705 373.193 64.8585 368.938C49.3435 365.589 34.0145 364.456 25.3445 366.018Z" fill="black"/>
</svg>
